<svg id="Layer_1" enable-background="new 0 0 256 256" height="512" viewBox="0 0 256 256" width="512" xmlns="http://www.w3.org/2000/svg"><path d="m222.395 16.135h-188.79c-9.447 0-17.105 7.659-17.105 17.105v130.29c0 9.447 7.658 17.105 17.105 17.105h188.789c9.447 0 17.105-7.658 17.105-17.105v-130.289c.001-9.447-7.657-17.106-17.104-17.106z" fill="#87796f"/><path d="m222.395 14.636h-188.79c-10.258 0-18.605 8.346-18.605 18.605v130.289c0 10.259 8.347 18.605 18.605 18.605h188.789c10.259 0 18.605-8.347 18.605-18.605v-130.289c.001-10.259-8.346-18.605-18.604-18.605zm15.605 148.894c0 8.604-7.001 15.605-15.605 15.605h-188.79c-8.604 0-15.605-7.001-15.605-15.605v-130.289c0-8.604 7.001-15.605 15.605-15.605h188.789c8.604 0 15.605 7.001 15.605 15.605v130.289z" fill="#3a312a"/><path d="m214.969 28.635h-173.938c-6.583 0-11.92 5.337-11.92 11.92v115.66c0 6.583 5.337 11.92 11.92 11.92h173.938c6.583 0 11.92-5.336 11.92-11.92v-115.66c0-6.583-5.337-11.92-11.92-11.92z" fill="#f7e3c7"/><path d="m214.969 27.136h-115.17c-.828 0-1.5.672-1.5 1.5s.672 1.5 1.5 1.5h115.17c5.745 0 10.42 4.675 10.42 10.42v115.66c0 5.745-4.675 10.42-10.42 10.42h-173.938c-5.745 0-10.42-4.675-10.42-10.42v-115.66c0-5.745 4.675-10.42 10.42-10.42h45.17c.828 0 1.5-.672 1.5-1.5s-.672-1.5-1.5-1.5h-45.17c-7.399 0-13.42 6.021-13.42 13.42v115.66c0 7.399 6.021 13.42 13.42 13.42h173.938c7.399 0 13.42-6.021 13.42-13.42v-115.66c0-7.4-6.021-13.42-13.42-13.42z" fill="#3a312a"/><path d="m113.688 180.635h28.625v35.593h-28.625z" fill="#87796f"/><path d="m142.313 179.136h-28.625c-.828 0-1.5.672-1.5 1.5v35.593c0 .828.672 1.5 1.5 1.5h28.625c.828 0 1.5-.672 1.5-1.5v-35.593c0-.828-.672-1.5-1.5-1.5zm-1.5 35.593h-25.625v-32.593h25.625z" fill="#3a312a"/><path d="m148.296 216.229h-40.593c-12.927 0-23.407 10.479-23.407 23.407h87.406c.001-12.928-10.478-23.407-23.406-23.407z" fill="#87796f"/><path d="m148.297 214.729h-40.594c-13.733 0-24.906 11.173-24.906 24.907 0 .828.672 1.5 1.5 1.5h37.584c.828 0 1.5-.672 1.5-1.5s-.672-1.5-1.5-1.5h-36.033c.773-11.383 10.28-20.407 21.855-20.407h40.594c11.575 0 21.082 9.024 21.855 20.407h-34.701c-.828 0-1.5.672-1.5 1.5s.672 1.5 1.5 1.5h36.252c.828 0 1.5-.672 1.5-1.5 0-13.735-11.173-24.907-24.906-24.907z" fill="#3a312a"/><path d="m47.671 203.469c-.974 11.564-13.025 13.39-13.025 13.39 10.346.487 12.925 14.059 12.925 14.059.221-9.677 13.321-14.202 13.321-14.202-9.813-.587-13.221-13.247-13.221-13.247z" fill="#d5dc57"/><path d="m60.982 215.219c-8.604-.515-11.832-12.024-11.863-12.141-.19-.702-.849-1.156-1.584-1.102-.725.066-1.298.642-1.359 1.367-.859 10.215-11.313 11.963-11.754 12.031-.763.116-1.313.791-1.273 1.561.04.771.657 1.385 1.428 1.421 9.028.426 11.499 12.719 11.522 12.844.138.711.76 1.217 1.473 1.217.042 0 .084-.002.126-.005.765-.064 1.357-.693 1.375-1.46.193-8.509 12.19-12.777 12.312-12.819.676-.234 1.092-.914.994-1.622-.1-.709-.683-1.25-1.397-1.292zm-13.565 10.345c-1.357-3.131-3.709-6.908-7.587-8.877 2.931-1.404 6.408-3.913 8.201-8.272 1.551 3.071 4.2 6.88 8.334 8.723-3.007 1.639-6.922 4.405-8.948 8.426z" fill="#3a312a"/><path d="m25.972 220.45c-.689 8.179-9.212 9.471-9.212 9.471 7.318.344 9.142 9.944 9.142 9.944.156-6.845 9.422-10.045 9.422-10.045-6.941-.416-9.352-9.37-9.352-9.37z" fill="#d5dc57"/><path d="m35.414 228.322c-5.767-.345-7.972-8.186-7.993-8.265-.19-.701-.866-1.158-1.582-1.102-.726.065-1.3.643-1.361 1.368-.579 6.87-7.646 8.066-7.942 8.113-.763.116-1.313.791-1.273 1.561.04.771.657 1.385 1.428 1.421 6.035.284 7.724 8.644 7.739 8.726.136.713.759 1.22 1.473 1.22.041 0 .083-.002.125-.005.765-.063 1.358-.693 1.376-1.461.13-5.708 8.331-8.633 8.412-8.661.676-.234 1.093-.913.996-1.622-.099-.709-.684-1.251-1.398-1.293zm-9.585 6.795c-.924-1.886-2.34-3.947-4.447-5.28 1.856-1.041 3.697-2.63 4.871-4.916 1.057 1.874 2.654 3.955 4.941 5.224-1.85 1.1-3.989 2.74-5.365 4.972z" fill="#3a312a"/><path d="m25.972 193.792c-.689 8.179-9.212 9.47-9.212 9.47 7.318.345 9.142 9.944 9.142 9.944.156-6.844 9.422-10.045 9.422-10.045-6.941-.414-9.352-9.369-9.352-9.369z" fill="#d5dc57"/><path d="m35.414 201.665c-5.767-.345-7.972-8.187-7.993-8.266-.19-.702-.866-1.156-1.582-1.102-.726.065-1.3.643-1.361 1.368-.579 6.871-7.646 8.066-7.942 8.113-.763.116-1.313.791-1.273 1.561.04.771.657 1.385 1.428 1.421 6.035.284 7.724 8.645 7.739 8.727.136.713.759 1.22 1.473 1.22.041 0 .083-.002.125-.005.765-.063 1.358-.693 1.376-1.461.13-5.709 8.331-8.633 8.411-8.661.677-.233 1.094-.913.997-1.622-.099-.709-.684-1.251-1.398-1.293zm-9.585 6.794c-.924-1.885-2.34-3.947-4.447-5.279 1.856-1.041 3.697-2.63 4.871-4.916 1.057 1.873 2.654 3.954 4.94 5.224-1.849 1.1-3.988 2.74-5.364 4.971z" fill="#3a312a"/><path d="m48.846 43.5h158.308v24.904h-158.308z" fill="#eb6e7a"/><path d="m207.154 42h-158.308c-.828 0-1.5.672-1.5 1.5v24.903c0 .828.672 1.5 1.5 1.5h158.309c.828 0 1.5-.672 1.5-1.5v-24.903c-.001-.828-.673-1.5-1.501-1.5zm-1.5 24.903h-155.308v-21.903h155.309v21.903z" fill="#3a312a"/><path d="m114.5 80.314h92.654v38.196h-92.654z" fill="#d5dc57"/><g fill="#3a312a"><path d="m207.154 78.813h-92.654c-.828 0-1.5.672-1.5 1.5v38.196c0 .828.672 1.5 1.5 1.5h92.654c.828 0 1.5-.672 1.5-1.5v-38.196c0-.828-.672-1.5-1.5-1.5zm-1.5 38.197h-89.654v-35.197h89.654z"/><path d="m207.154 128.919h-67.987c-.828 0-1.5.672-1.5 1.5s.672 1.5 1.5 1.5h67.987c.828 0 1.5-.672 1.5-1.5s-.672-1.5-1.5-1.5z"/><path d="m207.154 140.876h-67.987c-.828 0-1.5.672-1.5 1.5s.672 1.5 1.5 1.5h67.987c.828 0 1.5-.672 1.5-1.5s-.672-1.5-1.5-1.5z"/><path d="m207.154 152.833h-67.987c-.828 0-1.5.672-1.5 1.5s.672 1.5 1.5 1.5h67.987c.828 0 1.5-.672 1.5-1.5s-.672-1.5-1.5-1.5z"/></g><path d="m48.846 80.314h55.404v38.196h-55.404z" fill="#8ac3da"/><path d="m104.25 78.813h-55.404c-.828 0-1.5.672-1.5 1.5v38.196c0 .828.672 1.5 1.5 1.5h55.404c.828 0 1.5-.672 1.5-1.5v-38.196c0-.828-.672-1.5-1.5-1.5zm-1.5 38.197h-52.404v-35.197h52.404z" fill="#3a312a"/><path d="m48.846 130.418h80.154v23.915h-80.154z" fill="#eb6e7a"/><path d="m129 128.919h-80.154c-.828 0-1.5.672-1.5 1.5v23.914c0 .828.672 1.5 1.5 1.5h80.154c.828 0 1.5-.672 1.5-1.5v-23.914c0-.828-.672-1.5-1.5-1.5zm-1.5 23.914h-77.154v-20.914h77.154z" fill="#3a312a"/><path d="m214.97 30.14h-16c5.74 0 10.42 4.67 10.42 10.42v115.66c0 5.74-4.68 10.42-10.42 10.42h16c5.74 0 10.42-4.68 10.42-10.42v-115.66c0-5.75-4.68-10.42-10.42-10.42z" fill="#dcc8ab"/></svg>